<svg height="auto" viewBox="0 0 2000 1000" xmlns="http://www.w3.org/2000/svg"><path d="M0 138.746c21-3.122 63-93.793 105-15.608 42 78.184 63 320.327 105 406.53 42 86.203 63-20.752 105 24.483s63 220.58 105 201.693 63-203.322 105-296.128c42-92.805 63-109.676 105-167.898 42-58.222 63-129.402 105-123.211 42 6.19 63 125.63 105 154.165 42 28.534 63 .357 105-11.495 42-11.852 63-101.418 105-47.765 42 53.652 63 286.685 105 316.027 42 29.342 63-148.748 105-169.317 42-20.569 63 110.625 105 66.474 42-44.152 63-312.327 105-287.232 42 25.094 63 389.188 105 412.703 42 23.516 63-238.761 105-295.127 42-56.366 63 13.86 105 13.298 42-.56 63-98.136 105-16.103 42 82.032 84 341.012 105 426.266l5 269.499H0Z" fill="#444cf71a"/><path d="M0 138.746c21-3.122 63-93.793 105-15.608 42 78.184 63 320.327 105 406.53 42 86.203 63-20.752 105 24.483s63 220.58 105 201.693 63-203.322 105-296.128c42-92.805 63-109.676 105-167.898 42-58.222 63-129.402 105-123.211 42 6.19 63 125.63 105 154.165 42 28.534 63 .357 105-11.495 42-11.852 63-101.418 105-47.765 42 53.652 63 286.685 105 316.027 42 29.342 63-148.748 105-169.317 42-20.569 63 110.625 105 66.474 42-44.152 63-312.327 105-287.232 42 25.094 63 389.188 105 412.703 42 23.516 63-238.761 105-295.127 42-56.366 63 13.86 105 13.298 42-.56 63-98.136 105-16.103 42 82.032 84 341.012 105 426.266" fill="none" stroke="#444cf7" stroke-width="4"/></svg>