<svg height="auto" viewBox="0 0 2000 1000" xmlns="http://www.w3.org/2000/svg"><path d="M0 703.672C21 669.47 63 514.636 105 532.66s63 316.342 105 261.132c42-55.21 63-402.508 105-537.183s63-120.568 105-136.19c42-15.624 63 53.11 105 58.074 42 4.963 63-46.434 105-33.258 42 13.175 63 90.19 105 99.135 42 8.944 63-141.253 105-54.414 42 86.839 63 459.596 105 488.608s63-273.948 105-343.55c42-69.603 63-94.195 105-4.46 42 89.734 63 451.893 105 453.131 42 1.24 63-341.604 105-446.937 42-105.333 63-44.258 105-79.73 42-35.47 63-73.65 105-97.623s63-73.862 105-22.24c42 51.623 63 186.545 105 280.352 42 93.807 63 115.3 105 188.684s84 142.588 105 178.234l5 215.575H0Z" fill="#444cf71a"/><path d="M0 703.672C21 669.47 63 514.636 105 532.66s63 316.342 105 261.132c42-55.21 63-402.508 105-537.183s63-120.568 105-136.19c42-15.624 63 53.11 105 58.074 42 4.963 63-46.434 105-33.258 42 13.175 63 90.19 105 99.135 42 8.944 63-141.253 105-54.414 42 86.839 63 459.596 105 488.608s63-273.948 105-343.55c42-69.603 63-94.195 105-4.46 42 89.734 63 451.893 105 453.131 42 1.24 63-341.604 105-446.937 42-105.333 63-44.258 105-79.73 42-35.47 63-73.65 105-97.623s63-73.862 105-22.24c42 51.623 63 186.545 105 280.352 42 93.807 63 115.3 105 188.684s84 142.588 105 178.234" fill="none" stroke="#444cf7" stroke-width="4"/></svg>