<svg height="auto" viewBox="0 0 2000 1000" xmlns="http://www.w3.org/2000/svg"><path d="M0 17.706c21 5.642 63 13.16 105 28.21 42 15.048 63 27.249 105 47.035 42 19.786 63 32.35 105 51.895s63 41.89 105 45.83c42 3.939 63-42.233 105-26.132 42 16.1 63 72.3 105 106.635 42 34.334 63 37.987 105 65.034 42 27.048 63 61.012 105 70.205 42 9.193 63-8.946 105-24.24 42-15.295 63-35.84 105-52.234 42-16.395 63-51.64 105-29.738 42 21.903 63 128.183 105 139.25 42 11.067 63-96.76 105-83.913 42 12.847 63 121.537 105 148.148 42 26.61 63-8.288 105-15.095s63-68.9 105-18.942c42 49.958 63 245.284 105 268.73 42 23.448 63-170.413 105-151.495 42 18.918 84 196.87 105 246.087l5 167.024H0Z" fill="#444cf71a"/><path d="M0 17.706c21 5.642 63 13.16 105 28.21 42 15.048 63 27.249 105 47.035 42 19.786 63 32.35 105 51.895s63 41.89 105 45.83c42 3.939 63-42.233 105-26.132 42 16.1 63 72.3 105 106.635 42 34.334 63 37.987 105 65.034 42 27.048 63 61.012 105 70.205 42 9.193 63-8.946 105-24.24 42-15.295 63-35.84 105-52.234 42-16.395 63-51.64 105-29.738 42 21.903 63 128.183 105 139.25 42 11.067 63-96.76 105-83.913 42 12.847 63 121.537 105 148.148 42 26.61 63-8.288 105-15.095s63-68.9 105-18.942c42 49.958 63 245.284 105 268.73 42 23.448 63-170.413 105-151.495 42 18.918 84 196.87 105 246.087" fill="none" stroke="#444cf7" stroke-width="4"/></svg>