<svg height="auto" viewBox="0 0 2000 1000" xmlns="http://www.w3.org/2000/svg"><path d="M0 992.659c21-8.901 63-30.956 105-44.505 42-13.549 63-13.374 105-23.24 42-9.865 63-11.145 105-26.087s63-24.71 105-48.623c42-23.912 63-53.421 105-70.938 42-17.517 63-7.675 105-16.647 42-8.972 63-7.561 105-28.214 42-20.652 63-49.816 105-75.049 42-25.233 63-37.499 105-51.117 42-13.617 63 19.059 105-16.971s63-148.862 105-163.179c42-14.316 63 91.42 105 91.597 42 .178 63-90.12 105-90.706 42-.587 63 117.59 105 87.772 42-29.817 63-224.775 105-236.86 42-12.086 63 124.141 105 176.434 42 52.292 63 77.788 105 85.028 42 7.24 63 20.945 105-48.826 42-69.77 84-240.022 105-300.027l5 807.499H0Z" fill="#444cf71a"/><path d="M0 992.659c21-8.901 63-30.956 105-44.505 42-13.549 63-13.374 105-23.24 42-9.865 63-11.145 105-26.087s63-24.71 105-48.623c42-23.912 63-53.421 105-70.938 42-17.517 63-7.675 105-16.647 42-8.972 63-7.561 105-28.214 42-20.652 63-49.816 105-75.049 42-25.233 63-37.499 105-51.117 42-13.617 63 19.059 105-16.971s63-148.862 105-163.179c42-14.316 63 91.42 105 91.597 42 .178 63-90.12 105-90.706 42-.587 63 117.59 105 87.772 42-29.817 63-224.775 105-236.86 42-12.086 63 124.141 105 176.434 42 52.292 63 77.788 105 85.028 42 7.24 63 20.945 105-48.826 42-69.77 84-240.022 105-300.027" fill="none" stroke="#444cf7" stroke-width="4"/></svg>