<svg height="auto" viewBox="0 0 2000 1000" xmlns="http://www.w3.org/2000/svg"><path d="M0 195.192c21 37.71 63 205.661 105 188.546 42-17.115 63-339.95 105-274.121 42 65.828 63 553.805 105 603.264 42 49.458 63-242.319 105-355.97 42-113.651 63-265.93 105-212.286 42 53.644 63 400.072 105 480.505 42 80.432 63-70.844 105-78.342 42-7.499 63 39.964 105 40.85 42 .884 63 26.288 105-36.425 42-62.714 63-304.995 105-277.143 42 27.853 63 325.173 105 416.405 42 91.233 63 154.985 105 39.755 42-115.23 63-542.875 105-615.904 42-73.028 63 213.827 105 250.762 42 36.934 63-125.198 105-66.09 42 59.107 63 341.543 105 361.628 42 20.085 63-266.972 105-261.202 42 5.77 63 341.914 105 290.052 42-51.862 84-439.49 105-549.362l5 859.886H0Z" fill="#444cf71a"/><path d="M0 195.192c21 37.71 63 205.661 105 188.546 42-17.115 63-339.95 105-274.121 42 65.828 63 553.805 105 603.264 42 49.458 63-242.319 105-355.97 42-113.651 63-265.93 105-212.286 42 53.644 63 400.072 105 480.505 42 80.432 63-70.844 105-78.342 42-7.499 63 39.964 105 40.85 42 .884 63 26.288 105-36.425 42-62.714 63-304.995 105-277.143 42 27.853 63 325.173 105 416.405 42 91.233 63 154.985 105 39.755 42-115.23 63-542.875 105-615.904 42-73.028 63 213.827 105 250.762 42 36.934 63-125.198 105-66.09 42 59.107 63 341.543 105 361.628 42 20.085 63-266.972 105-261.202 42 5.77 63 341.914 105 290.052 42-51.862 84-439.49 105-549.362" fill="none" stroke="#444cf7" stroke-width="4"/></svg>