<svg height="auto" viewBox="0 0 2000 1000" xmlns="http://www.w3.org/2000/svg"><path d="M0 995.43c21-5.857 63-19.6 105-29.287 42-9.687 63-8.31 105-19.148 42-10.837 63-5.557 105-35.036 42-29.48 63-94.076 105-112.362 42-18.285 63 41.931 105 20.932 42-20.998 63-105.886 105-125.926 42-20.04 63 9.084 105 25.728 42 16.644 63 50.166 105 57.49 42 7.325 63 8.861 105-20.867 42-29.729 63-67.169 105-127.775 42-60.607 63-162.116 105-175.258 42-13.142 63 129.533 105 109.548 42-19.986 63-193.691 105-209.475 42-15.783 63 95.495 105 130.557 42 35.062 63 104.557 105 44.752 42-59.806 63-306.428 105-343.779 42-37.35 63 96.363 105 157.027 42 60.663 63 180.319 105 146.29 42-34.03 84-253.15 105-316.438l5 827.597H0Z" fill="#444cf71a"/><path d="M0 995.43c21-5.857 63-19.6 105-29.287 42-9.687 63-8.31 105-19.148 42-10.837 63-5.557 105-35.036 42-29.48 63-94.076 105-112.362 42-18.285 63 41.931 105 20.932 42-20.998 63-105.886 105-125.926 42-20.04 63 9.084 105 25.728 42 16.644 63 50.166 105 57.49 42 7.325 63 8.861 105-20.867 42-29.729 63-67.169 105-127.775 42-60.607 63-162.116 105-175.258 42-13.142 63 129.533 105 109.548 42-19.986 63-193.691 105-209.475 42-15.783 63 95.495 105 130.557 42 35.062 63 104.557 105 44.752 42-59.806 63-306.428 105-343.779 42-37.35 63 96.363 105 157.027 42 60.663 63 180.319 105 146.29 42-34.03 84-253.15 105-316.438" fill="none" stroke="#444cf7" stroke-width="4"/></svg>